Coordinates
version=1
nRows=13
nColumns=36
inDegrees=yes

Units are S.I. units (second, meters, Newtons, ...)
If the header above contains a line with 'inDegrees', this indicates whether rotational values are in degrees (yes) or radians (no).

endheader
time	pelvis_tilt	pelvis_list	pelvis_rotation	pelvis_tx	pelvis_ty	pelvis_tz	hip_flexion_r	hip_adduction_r	hip_rotation_r	knee_angle_r	knee_angle_r_beta	ankle_angle_r	subtalar_angle_r	mtp_angle_r	hip_flexion_l	hip_adduction_l	hip_rotation_l	knee_angle_l	knee_angle_l_beta	ankle_angle_l	subtalar_angle_l	mtp_angle_l	lumbar_extension	lumbar_bending	lumbar_rotation	arm_flex_r	arm_add_r	arm_rot_r	elbow_flex_r	pro_sup_r	arm_flex_l	arm_add_l	arm_rot_l	elbow_flex_l	pro_sup_l
      0.00000000	      4.18214665	     -4.29636844	      0.14153864	      0.22232416	      1.00091058	     -0.03872054	     -2.33111871	      5.11543630	     -4.32703392	      3.22195259	      0.05623368	      3.90335551	     -5.95186823	     -5.82851847	      0.07133871	     -6.94289060	     -4.38525651	      7.35420991	      0.12835518	      9.59120899	     -3.93504451	     -5.82851847	     -9.10243090	      5.89806963	      0.81327294	     16.83488690	     -4.11668382	     23.76866198	     15.13524409	     78.20483412	      0.40607767	     -6.09813741	      8.16543751	     15.20757865	     69.03843108
      0.01666670	      0.57358769	     -3.84589494	     -0.00011878	      0.22471920	      0.99414752	     -0.04295723	      1.68856958	      4.38951004	     -5.38478089	      3.62789853	      0.06331877	      6.87730243	     -2.00699103	     -6.64036758	      3.90668381	     -6.22040659	     -6.92756114	      6.99956534	      0.12216546	      9.69055390	     -2.00729753	     -6.64036758	     -3.57033755	      5.55579992	      1.76639147	     15.06816066	     -4.24020402	     16.16154229	     15.39225610	     81.83333704	      0.68069826	     -5.48462905	      5.91643592	     13.23958101	     71.29685688
      0.03333330	     -0.71765020	     -3.18582932	     -0.43019904	      0.22529332	      0.99458496	     -0.04149892	      2.61234126	      3.79206493	     -6.06685912	      2.77280735	      0.04839462	      7.40731062	     -1.15787132	     -6.71452969	      5.33888931	     -5.60515158	     -8.99086033	      6.85974280	      0.11972510	      9.12552505	     -0.32442523	     -6.71452969	     -1.37357943	      4.71429617	      2.35231961	     14.41233409	     -3.91213228	     15.23644966	     15.54444081	     80.93914057	      0.75870119	     -5.48041517	      5.08899328	     12.55294129	     70.39654939
      0.05000000	     -0.86979151	     -2.80676415	     -0.69736003	      0.22325556	      0.99353480	     -0.03956421	      2.46120701	      3.55736388	     -6.15116849	      1.90474029	      0.03324399	      7.71440182	     -0.03261636	     -6.84424122	      5.23351357	     -5.27201795	    -10.40812680	      6.06275868	      0.10581510	      8.92229315	      1.53807261	     -6.84424122	     -1.09442354	      4.13285539	      3.03925485	     14.22618384	     -3.82665137	     13.20928750	     16.42444538	     79.55102624	      1.12830478	     -5.46241399	      3.36258717	     11.74244088	     68.63334406
      0.06666670	     -0.80911392	     -2.58670149	     -0.83432898	      0.22366265	      0.99407045	     -0.04088619	      2.12096373	      3.44310526	     -6.06174398	      1.46326432	      0.02553878	      7.85173839	      0.20430955	     -6.97421753	      4.96978150	     -4.97649894	    -10.89472139	      5.50360752	      0.09605607	      8.55018600	      2.08514618	     -6.97421753	     -1.16217517	      3.92408337	      3.46664680	     14.31703521	     -3.89391821	     12.43481139	     17.25739685	     77.62368630	      1.33150828	     -5.39425141	      2.24751771	     11.69800281	     67.00264165
      0.08333330	     -0.87402171	     -2.44500623	     -0.98352545	      0.22410140	      0.99193441	     -0.04127146	      2.11015868	      3.30121991	     -6.23178013	      1.41914711	      0.02476879	      8.16860033	      0.84903233	     -7.14068838	      4.96614725	     -4.77778319	    -11.48143023	      5.34855659	      0.09334992	      8.53770307	      3.02996417	     -7.14068838	     -0.97570270	      3.82717042	      3.90013947	     14.60160218	     -4.01281553	     12.19484306	     17.29594504	     75.31454375	      1.83275692	     -5.03040917	      0.59445433	     10.58453622	     64.71877343
      0.10000000	     -0.39536103	     -2.37330208	     -1.00697117	      0.22311796	      0.99529958	     -0.04122986	      1.49339396	      3.22132496	     -6.56628612	      1.31608965	      0.02297010	      8.37714361	      1.60606303	     -7.23688976	      4.34381557	     -4.62194877	    -11.42586759	      5.12639544	      0.08947248	      8.12168671	      2.71806589	     -7.23688976	     -1.72837339	      3.73734020	      4.05615741	     14.86631424	     -4.12396791	     11.74611129	     18.24477430	     73.40278426	      1.89506038	     -4.97883361	     -0.44512793	     11.59801085	     63.47423016
      0.11666670	     -0.54220626	     -2.28964707	     -1.17256555	      0.22265255	      0.99232439	     -0.04066302	      1.61775631	      3.16795062	     -6.02331006	      1.28455316	      0.02241968	      8.09976107	      0.87096541	     -7.37812256	      4.48088746	     -4.56307348	    -11.91118482	      5.18000415	      0.09040813	      8.29960068	      3.55687511	     -7.37812256	     -1.43758768	      3.68506190	      4.07454693	     15.24080435	     -4.16884251	     10.00280770	     18.22858055	     81.73975735	      2.31534656	     -4.80058157	     -1.74300504	     10.49670913	     63.86585846
      0.13333330	     -0.55428734	     -2.28978711	     -1.22991499	      0.22277650	      0.99907809	     -0.04130314	      1.63160178	      3.14696075	     -5.96196852	      1.28980540	      0.02251135	      8.02300099	      0.95295747	     -7.37846134	      4.49741897	     -4.54547118	    -11.91879077	      5.16721255	      0.09018487	      8.13279448	      3.64301426	     -7.37846134	     -1.37519137	      3.71256235	      4.01350396	     15.51175057	     -4.33281790	      9.96897527	     18.37241282	     81.72341827	      2.43498554	     -4.71225391	     -1.73856703	     10.57089508	     63.86418381
      0.15000000	     -0.14579390	     -2.32702442	     -1.34983129	      0.22390466	      0.99769635	     -0.04231884	      1.09204981	      3.11964492	     -5.94501366	      1.17881771	      0.02057425	      7.76961288	      1.24740906	     -7.41914436	      3.83985353	     -4.55487295	    -12.28010661	      4.92422197	      0.08594389	      7.87879525	      4.27558003	     -7.41914436	     -1.80569386	      3.77191675	      3.92089507	     15.57125756	     -4.55796716	      9.71405865	     19.43846791	     78.92625652	      2.60502459	     -4.59726810	     -2.14232870	     10.31892549	     62.97177606
      0.16666670	     -0.03664777	     -2.31572149	     -1.50739371	      0.22341648	      1.00196539	     -0.04214624	      0.95743244	      3.08888796	     -6.01481196	      1.11632073	      0.01948347	      7.41269039	      1.33324158	     -7.41983777	      3.57113656	     -4.51774071	    -12.52446177	      4.74377931	      0.08279457	      7.56031801	      4.40199738	     -7.41983777	     -1.84510037	      3.83160879	      3.64621020	     15.80807922	     -4.69375258	      9.62719567	     19.86098639	     79.03573839	      2.56188896	     -4.57075755	     -2.07218342	     10.27828636	     63.01332926
      0.18333330	      0.24060588	     -2.30262788	     -1.52017981	      0.22360371	      1.00425699	     -0.04183744	      0.57737942	      3.04845530	     -6.10549546	      1.01693499	      0.01774886	      7.27779078	      1.54998770	     -7.45545998	      3.12577437	     -4.49155540	    -12.78604277	      4.58155804	      0.07996327	      7.36408637	      5.01096975	     -7.45545998	     -2.12727654	      3.73389188	      3.53445642	     15.76781920	     -4.83702993	      8.94262304	     21.01715750	     75.90097960	      2.78683161	     -4.51909944	     -1.91062255	     10.03217532	     62.23900687
      0.20000000	      0.52546975	     -2.33574696	     -1.58756075	      0.22698631	      1.00329678	     -0.04330758	      0.14342649	      3.05618058	     -6.17986219	      1.00351395	      0.01751462	      7.16221210	      1.76550550	     -7.47799518	      2.62373673	     -4.47869082	    -13.01554254	      4.36543979	      0.07619130	      7.17610971	      5.34540496	     -7.47799518	     -2.39853028	      3.80466739	      3.49299065	     15.29689197	     -4.77111844	      3.89199745	     22.80666044	     85.01350047	      2.70746080	     -4.55943107	     -1.25750531	     10.29137013	     63.48455208
